<?xml version="1.0" standalone="no"?>
<!DOCTYPE svg PUBLIC "-//W3C//DTD SVG 20010904//EN"
 "http://www.w3.org/TR/2001/REC-SVG-20010904/DTD/svg10.dtd">
<svg version="1.0" xmlns="http://www.w3.org/2000/svg"
 width="3348.000000pt" height="3348.000000pt" viewBox="0 0 3348.000000 3348.000000"
 preserveAspectRatio="xMidYMid meet">
<metadata>
Created by potrace 1.14, written by Peter Selinger 2001-2017
</metadata>
<g transform="translate(0.000000,3348.000000) scale(0.100000,-0.100000)"
fill="#000000" stroke="none">
<path d="M4269 31736 c-2 -2 -44 -6 -94 -10 -149 -9 -299 -26 -376 -41 -13 -3
-39 -7 -56 -10 -27 -3 -92 -15 -113 -20 -3 -1 -23 -5 -45 -9 -235 -46 -624
-167 -845 -264 -166 -72 -305 -141 -445 -220 -90 -50 -195 -114 -195 -117 0
-2 57 -92 126 -201 70 -110 138 -218 153 -242 14 -24 49 -78 76 -122 28 -43
79 -125 115 -181 36 -57 80 -125 98 -152 17 -27 32 -51 32 -53 0 -3 27 -46
136 -216 46 -73 133 -210 244 -385 46 -73 87 -133 90 -133 3 0 28 14 55 31 85
54 326 166 448 208 226 78 459 125 682 136 28 2 764 3 1638 4 l1587 1 0 1000
0 1000 -1654 0 c-909 -1 -1655 -2 -1657 -4z"/>
<path d="M9599 31713 c0 -37 0 -1922 0 -1950 l1 -23 2519 0 2518 0 0 1000 1
1000 -2519 0 -2519 0 -1 -27z"/>
<path d="M16659 31733 c0 -5 -1 -455 -2 -1001 l-2 -992 2526 0 2526 0 0 1000
0 1000 -2524 0 c-1387 0 -2523 -3 -2524 -7z"/>
<path d="M23729 31723 c0 -10 -2 -460 -2 -1001 l-2 -982 950 -1 c523 -1 961
-2 975 -4 107 -8 189 -16 210 -21 42 -8 63 -11 110 -19 118 -19 374 -94 475
-140 17 -7 55 -23 85 -36 65 -27 248 -129 338 -187 l63 -41 67 45 c37 24 83
53 102 64 19 12 85 52 145 90 171 107 673 413 692 421 6 3 252 150 328 196 11
7 27 16 35 20 8 4 49 27 90 51 80 48 85 51 227 131 51 29 95 56 98 61 5 8 -52
68 -172 180 -528 490 -1188 852 -1893 1039 -103 27 -221 55 -290 67 -182 33
-222 39 -400 60 -30 3 -73 8 -95 11 -22 3 -511 8 -1087 10 -1007 4 -1048 4
-1049 -14z"/>
<path d="M32925 31318 c-366 -150 -783 -330 -1093 -474 -41 -19 -75 -34 -77
-34 -1 0 -65 -30 -141 -66 -77 -36 -186 -88 -244 -116 -130 -61 -879 -436
-1015 -508 -55 -29 -143 -75 -195 -103 -84 -44 -141 -75 -400 -215 -99 -54
-313 -171 -330 -182 -8 -4 -100 -57 -205 -116 -210 -118 -215 -121 -670 -390
-292 -172 -607 -362 -695 -419 -19 -12 -102 -64 -185 -115 -82 -51 -179 -112
-215 -135 -36 -23 -117 -75 -180 -115 -63 -40 -171 -110 -240 -154 -159 -103
-796 -527 -960 -640 -69 -48 -154 -106 -190 -131 -36 -24 -102 -70 -147 -102
-46 -32 -109 -76 -140 -98 -32 -22 -77 -53 -99 -70 -23 -16 -50 -36 -60 -43
-11 -7 -91 -64 -179 -128 -144 -103 -190 -136 -259 -184 -88 -61 -682 -503
-946 -704 -80 -60 -172 -131 -205 -156 -33 -25 -62 -47 -65 -50 -3 -3 -23 -19
-45 -36 -117 -89 -657 -515 -665 -524 -3 -3 -34 -28 -70 -55 -36 -27 -67 -52
-70 -55 -3 -3 -50 -42 -105 -86 -55 -43 -102 -81 -105 -84 -4 -5 -123 -102
-395 -324 -27 -23 -52 -44 -55 -47 -3 -3 -75 -63 -160 -134 -85 -71 -157 -132
-160 -135 -3 -3 -79 -69 -170 -145 -91 -77 -181 -154 -200 -172 -34 -30 -55
-49 -110 -95 -86 -73 -237 -205 -250 -218 -8 -8 -49 -44 -90 -80 -41 -36 -80
-69 -86 -75 -6 -5 -37 -33 -70 -62 -59 -51 -72 -63 -169 -152 -28 -25 -86 -77
-130 -116 -43 -38 -83 -75 -89 -80 -6 -6 -92 -85 -191 -175 -99 -90 -207 -189
-240 -220 -33 -31 -98 -92 -145 -136 -46 -43 -123 -116 -170 -161 -47 -45 -96
-91 -109 -102 -22 -19 -280 -266 -490 -469 -440 -426 -1363 -1365 -1697 -1728
-36 -38 -220 -236 -265 -285 -19 -19 -71 -76 -115 -125 -45 -49 -93 -101 -105
-115 -20 -21 -170 -185 -204 -223 -5 -6 -46 -51 -90 -101 -44 -49 -96 -107
-115 -128 -61 -68 -74 -83 -104 -118 -16 -19 -64 -72 -105 -119 -99 -110 -92
-103 -121 -136 -147 -170 -217 -251 -225 -260 -16 -17 -101 -117 -244 -284
-159 -186 -127 -148 -345 -410 -204 -246 -190 -229 -276 -335 -36 -44 -67 -82
-70 -85 -3 -3 -41 -50 -85 -105 -44 -55 -82 -102 -86 -105 -5 -5 -216 -269
-393 -493 -42 -54 -140 -180 -217 -280 -77 -100 -147 -190 -155 -201 -16 -18
-404 -532 -437 -577 -30 -42 -216 -294 -224 -304 -19 -23 -209 -288 -380 -528
-102 -142 -188 -257 -192 -255 -5 2 -176 102 -380 223 -204 121 -386 228 -404
239 -17 10 -252 149 -522 309 -269 159 -510 301 -535 315 -25 14 -74 43 -110
65 -36 22 -78 48 -95 57 -16 9 -115 68 -220 130 -104 62 -203 120 -220 130
-100 58 -364 215 -444 263 -52 31 -95 57 -97 57 -1 0 -82 48 -181 106 -98 59
-191 115 -208 124 -152 87 -180 105 -183 112 -2 4 -8 8 -13 8 -5 0 -38 18 -74
40 -36 22 -67 40 -70 40 -2 0 -47 27 -100 60 -53 33 -98 60 -100 60 -2 0 -79
45 -170 100 -92 55 -169 100 -170 100 -2 0 -43 24 -92 53 -151 91 -301 180
-483 287 -96 56 -195 115 -220 130 -25 16 -61 37 -80 48 -19 10 -80 46 -135
79 -136 81 -395 235 -420 249 -11 6 -144 84 -295 174 -151 90 -289 171 -306
180 -17 10 -66 39 -108 65 l-78 47 -29 -34 c-15 -18 -28 -36 -29 -40 0 -4 -6
-13 -13 -20 -8 -7 -25 -30 -38 -50 -27 -41 -170 -243 -236 -333 -70 -96 -117
-161 -133 -186 -8 -12 -29 -40 -45 -63 -30 -40 -315 -439 -345 -482 -85 -122
-104 -150 -109 -154 -3 -3 -16 -19 -28 -36 -70 -101 -108 -155 -141 -200 -20
-28 -72 -100 -114 -160 -43 -60 -107 -149 -142 -199 -36 -49 -71 -98 -78 -108
-14 -20 -127 -179 -263 -368 -44 -62 -99 -139 -122 -173 l-43 -61 4687 -4687
c2578 -2578 4690 -4685 4694 -4682 4 2 18 25 32 52 47 93 140 267 147 277 4 6
35 64 70 130 35 66 71 132 82 147 10 14 18 29 18 32 0 3 31 61 68 129 38 67
85 151 104 187 58 106 84 152 242 430 82 146 166 294 185 328 20 35 41 71 46
81 6 9 37 64 70 121 33 58 65 114 72 125 7 11 15 27 19 35 4 8 22 39 41 68 18
29 33 54 33 56 0 3 19 37 43 78 24 40 55 93 69 118 56 99 262 447 279 472 11
14 19 29 19 32 0 9 494 832 754 1254 28 46 58 95 67 110 39 66 283 460 299
482 19 28 130 205 145 233 9 16 204 325 270 427 13 19 110 170 215 335 664
1034 1445 2197 2077 3092 34 48 83 117 107 153 25 36 63 88 83 117 21 29 63
87 93 130 30 43 59 83 65 90 5 6 26 35 45 63 36 52 72 102 217 302 220 301
315 432 393 538 134 182 653 874 659 880 3 3 62 79 131 170 107 142 505 654
590 760 15 19 85 107 155 195 69 88 134 169 143 180 9 11 82 101 161 200 128
159 427 526 473 580 9 11 80 97 158 190 78 94 152 181 164 195 11 14 70 84
131 155 60 72 112 132 115 135 4 4 40 45 136 160 24 28 156 179 374 430 132
150 211 240 265 299 28 31 55 60 60 67 29 32 153 171 175 194 43 47 184 202
203 224 10 12 61 66 112 121 51 55 105 114 120 130 31 33 244 260 375 399 386
407 1227 1246 1541 1537 20 19 88 82 150 140 63 59 128 120 145 135 89 82 225
207 273 250 30 27 62 56 71 64 8 8 72 64 140 125 69 60 127 112 130 115 3 3
55 48 115 100 61 52 112 98 115 101 5 5 354 301 455 385 64 54 340 278 384
312 84 67 208 165 226 180 11 9 38 30 60 46 22 17 42 32 45 36 3 3 61 48 130
99 69 52 137 104 151 115 15 12 39 30 54 41 61 44 361 265 370 273 11 8 247
176 329 233 257 178 770 515 971 637 183 110 291 175 320 192 17 10 100 58
185 107 154 90 397 224 582 322 109 57 576 291 582 291 2 0 55 24 117 54 162
77 256 118 494 218 233 97 217 83 203 183 -5 28 -10 70 -13 95 -4 25 -13 94
-21 153 -8 60 -17 130 -19 155 -3 26 -8 54 -10 62 -2 8 -7 47 -11 85 -3 39 -8
72 -9 75 -2 3 -6 34 -10 70 -4 36 -9 74 -11 85 -2 11 -8 56 -14 100 -6 44 -12
91 -15 105 -2 14 -6 45 -9 70 -6 56 -16 137 -22 170 -2 14 -6 49 -10 78 -3 29
-7 63 -9 74 -5 25 -22 149 -30 223 -3 28 -8 61 -10 75 -3 14 -7 41 -9 60 -9
73 -18 136 -22 170 -5 34 -7 53 -18 130 -3 19 -7 55 -10 80 -3 25 -15 113 -26
195 -25 185 -49 357 -55 409 -3 22 -6 41 -8 42 -1 1 -78 -29 -172 -68z"/>
<path d="M389 29074 c-80 -183 -149 -371 -212 -579 -30 -96 -94 -377 -112
-485 -3 -19 -7 -46 -10 -60 -3 -14 -7 -47 -11 -75 -3 -27 -8 -61 -10 -75 -1
-14 -6 -56 -10 -95 -3 -38 -9 -79 -12 -90 -3 -11 -8 -896 -9 -1967 l-4 -1948
1001 0 1000 0 1 1823 c0 1002 2 1847 4 1877 20 292 81 551 189 808 14 34 26
66 26 71 0 9 -33 26 -160 84 -126 57 -313 144 -543 251 -54 25 -100 46 -101
46 -2 0 -50 22 -107 49 -185 87 -281 131 -284 131 -1 0 -45 20 -96 44 -89 42
-480 222 -506 233 -8 3 -21 -14 -34 -43z"/>
<path d="M29840 25252 c-165 -125 -332 -253 -340 -262 -3 -3 -23 -18 -45 -34
-22 -16 -48 -37 -57 -45 -20 -18 -21 -20 -108 -86 -36 -28 -70 -54 -76 -60 -6
-5 -30 -26 -54 -45 -43 -35 -148 -121 -225 -185 -208 -172 -251 -208 -255
-214 -3 -3 -27 -24 -55 -46 -27 -22 -57 -47 -66 -55 -9 -8 -40 -36 -70 -61
-178 -152 -401 -350 -444 -393 l-51 -51 1 -655 0 -655 1000 -3 1000 -2 0 1485
c0 817 0 1485 0 1485 0 0 -70 -53 -155 -118z"/>
<path d="M0 19160 l0 -2520 1000 0 1000 0 0 2520 0 2520 -1000 0 -1000 0 0
-2520z"/>
<path d="M27995 17858 l0 -2523 1000 -3 1000 -2 0 2522 0 2523 -1000 3 -1000
2 0 -2522z"/>
<path d="M0 12095 l0 -2525 1000 0 1000 0 0 2525 0 2525 -1000 0 -1000 0 0
-2525z"/>
<path d="M27998 13303 c-2 -5 -4 -1137 -3 -2518 l0 -2510 1000 -3 1000 -2 0
2520 0 2520 -997 0 c-548 0 -998 -3 -1000 -7z"/>
<path d="M3 6728 c3 -453 7 -834 10 -848 3 -14 8 -61 12 -105 13 -139 18 -172
51 -350 21 -114 29 -156 49 -241 18 -79 93 -329 126 -424 179 -504 455 -997
768 -1370 25 -30 55 -66 66 -79 90 -108 326 -348 451 -457 96 -84 256 -210
356 -281 121 -86 428 -277 433 -271 5 6 88 153 122 218 20 36 43 79 53 95 10
17 54 95 97 175 90 163 170 308 398 720 86 157 173 314 193 350 19 36 50 92
69 124 40 69 47 58 -87 141 -282 175 -552 435 -739 714 -64 95 -171 278 -171
291 0 5 -9 24 -19 42 -64 112 -167 431 -200 623 -40 226 -40 229 -40 1053 l-1
702 -1001 0 -1001 0 5 -822z"/>
<path d="M27994 6193 c-1 -71 -14 -264 -18 -272 -2 -3 -7 -30 -10 -60 -17
-139 -99 -436 -158 -571 -162 -369 -369 -663 -634 -900 -104 -94 -123 -109
-185 -154 -35 -25 -68 -50 -74 -54 -55 -43 -220 -139 -339 -196 -194 -93 -449
-176 -636 -206 -131 -21 -121 -16 -114 -68 3 -26 7 -58 9 -72 6 -38 13 -92 30
-230 9 -69 18 -136 20 -150 2 -14 6 -47 10 -75 6 -54 12 -106 20 -170 3 -22 8
-56 10 -75 18 -139 36 -277 39 -299 2 -14 7 -53 11 -86 4 -32 8 -66 10 -75 1
-8 6 -42 9 -75 4 -33 9 -71 11 -85 5 -30 33 -255 41 -320 2 -25 7 -54 9 -65 2
-11 7 -49 11 -85 3 -36 8 -67 10 -69 7 -7 159 17 339 53 218 44 598 159 755
228 51 23 86 37 115 48 79 30 380 185 507 261 426 255 748 523 1097 914 57 63
194 236 246 310 27 39 52 72 55 75 11 10 149 228 199 315 28 50 56 97 61 105
43 72 158 318 220 470 109 269 223 667 257 895 2 17 11 68 18 115 8 47 17 112
20 145 3 33 8 78 10 100 7 65 16 222 19 333 l3 102 -1001 0 -1001 0 -1 -57z"/>
<path d="M4750 2740 l0 -1000 2524 0 2524 0 0 1000 0 1000 -2524 0 -2524 0 0
-1000z"/>
<path d="M11820 3548 c-1 -318 -1 -1782 0 -1795 0 -10 512 -13 2524 -13 l2524
0 0 1000 0 1000 -2524 0 -2524 0 0 -192z"/>
<path d="M18890 3713 c-1 -43 -1 -1946 -1 -1960 1 -10 512 -13 2519 -13 l2518
0 0 1000 0 1000 -2518 0 -2518 0 0 -27z"/>
</g>
</svg>
